# xmcd
#
# Track frame offsets:
#	150
#	13362
#	31050
#	47352
#	61343
#	80093
#	95382
#	114821
#	128418
#	142401
#	156411
#
# Disc length: 2389 seconds
#
# Revision: 1
# Processed by: cddbd v1.5.1PL0 Copyright (c) Steve Scherf et al.
# Submitted via: audiograbber 1.83.01
#
DISCID=8b09530b
DTITLE=Tom poisson - Fait des chasons
DYEAR=2004
DGENRE=Chanson à texte
TTITLE0=Elisabeth Martin
TTITLE1=Un manteau de toi
TTITLE2=La prière du poulbot
TTITLE3=La machine à café
TTITLE4=La planète en face
TTITLE5=Chanson pour Aurélie
TTITLE6=Café
TTITLE7=A trop rever
TTITLE8=La véritable histoire de la femme-abeille
TTITLE9=Elle
TTITLE10=Mes vacances
EXTD=Tom poisson - Fait des chansons
EXTT0=
EXTT1=
EXTT2=
EXTT3=
EXTT4=
EXTT5=
EXTT6=
EXTT7=
EXTT8=
EXTT9=
EXTT10=
PLAYORDER=
